<svg width="194" height="234" viewBox="0 0 194 234" fill="none" xmlns="http://www.w3.org/2000/svg">
<path fill-rule="evenodd" clip-rule="evenodd" d="M90.8716 0.10852C62.2507 2.00081 36.6061 15.818 19.4099 38.6116C1.44913 62.4183 -4.4673 93.4489 3.42626 122.442C7.60219 137.78 15.7466 152.089 26.9495 163.772C29.0274 165.939 30.0257 166.653 31.6987 167.17C35.3436 168.297 39.2257 166.536 40.9062 162.994C41.4495 161.849 41.491 161.613 41.491 159.675C41.491 157.735 41.4499 157.503 40.9027 156.347C40.4689 155.43 39.7539 154.51 38.178 152.839C32.316 146.623 28.2156 140.801 24.4292 133.317C17.0586 118.75 14.2997 102.604 16.3909 86.2757C19.7355 60.1587 35.8703 37.054 59.3943 24.6952C67.6505 20.3579 76.7619 17.4933 86.3914 16.2079C90.7263 15.6291 99.4997 15.4911 104.105 15.9289C127.462 18.15 148.383 30.1316 162.333 49.2764C167.191 55.9431 171.533 64.5766 173.986 72.4469C180.298 92.7006 178.545 114.547 169.099 133.319C166.367 138.75 163.044 143.826 158.964 148.804C157.436 150.667 147.528 160.714 121.265 187.031L85.6381 222.73L91.1785 228.275L96.7189 233.82L132.872 197.601C168.386 162.022 170.492 159.849 174.041 155.124C189.754 134.205 196.275 107.995 192.277 81.8335C188.487 57.0302 174.968 34.5179 154.689 19.2402C140.619 8.64003 123.751 2.12217 105.898 0.386892C102.204 0.027928 94.3039 -0.118464 90.8716 0.10852ZM65.9367 81.5964C60.1087 96.3801 54.7112 110.076 53.9422 112.032L52.5439 115.587H49.0542H45.5642V120.139V124.691L63.7044 124.643L81.8445 124.594L81.8953 120.096L81.9461 115.597L79.2166 115.545L76.4872 115.492L79.0345 108.097C80.4356 104.029 81.6443 100.638 81.7202 100.562C81.7964 100.485 85.2655 106.001 89.4296 112.821C93.5938 119.64 97.0597 125.164 97.1319 125.097C97.2039 125.029 100.628 119.47 104.742 112.743C108.855 106.016 112.28 100.512 112.354 100.512C112.47 100.512 117.194 113.978 117.487 115.145L117.598 115.587H114.925H112.252V120.138V124.689H130.439H148.627V120.142V115.595L145.092 115.544L141.558 115.492L129.522 85.1045C122.901 68.3912 117.437 54.7168 117.377 54.7168C117.318 54.7168 112.751 62.6515 107.23 72.3494C101.708 82.0476 97.1389 89.9834 97.0762 89.9848C97.0135 89.9863 92.4139 82.0515 86.8548 72.3521C81.2959 62.6527 76.6992 54.7168 76.6402 54.7168C76.5811 54.7168 71.7647 66.8127 65.9367 81.5964Z" fill="#F8343F"/>
</svg>
